<svg width="45" height="45" viewBox="0 0 45 45" fill="none" xmlns="http://www.w3.org/2000/svg">
<path d="M24.752 26.5C24.752 25.8096 24.1923 25.25 23.502 25.25C22.8116 25.25 22.252 25.8096 22.252 26.5H24.752ZM22.6181 28.3839C23.1062 28.872 23.8977 28.872 24.3858 28.3839L32.3408 20.4289C32.8289 19.9408 32.8289 19.1493 32.3408 18.6612C31.8526 18.173 31.0612 18.173 30.573 18.6612L23.502 25.7322L16.4309 18.6612C15.9427 18.173 15.1513 18.173 14.6631 18.6612C14.175 19.1493 14.175 19.9408 14.6631 20.4289L22.6181 28.3839ZM22.252 26.5V27.5H24.752V26.5H22.252Z" fill="#EEEEEE"/>
</svg>
